<svg width="254" height="93" viewBox="0 0 254 93" fill="none" xmlns="http://www.w3.org/2000/svg">
<rect x="44" y="15" width="32" height="32" rx="6" stroke="black" stroke-width="4"/>
<path d="M50 31.2424C54.0416 34.9541 56.2822 37.0651 57.3882 38.1327C57.845 38.5736 58.6138 38.5189 58.9894 38.007L70 23" stroke="black" stroke-width="4" stroke-linecap="round"/>
<rect x="44" y="59" width="32" height="32" rx="6" stroke="black" stroke-width="4"/>
<path d="M52 83.9706L68.9706 67" stroke="black" stroke-width="4" stroke-linecap="round"/>
<path d="M52 67L68.9706 83.9706" stroke="black" stroke-width="4" stroke-linecap="round"/>
<rect x="2" y="37" width="32" height="32" rx="16" stroke="black" stroke-width="4"/>
<rect x="9" y="44" width="18" height="18" rx="9" fill="black"/>
<path d="M118.247 71.056C118.247 71.8667 117.948 72.5707 117.351 73.168C116.796 73.7227 116.114 74 115.303 74H97.511C95.975 74 94.5457 73.616 93.223 72.848C91.943 72.08 90.919 71.056 90.151 69.776C89.383 68.496 88.999 67.088 88.999 65.552V39.248C88.999 37.6693 89.383 36.24 90.151 34.96C90.919 33.68 91.943 32.656 93.223 31.888C94.5457 31.12 95.975 30.736 97.511 30.736H109.799C111.335 30.736 112.743 31.12 114.023 31.888C115.303 32.656 116.327 33.68 117.095 34.96C117.863 36.24 118.247 37.6693 118.247 39.248V71.056ZM110.631 60.368V39.248C110.631 38.6507 110.354 38.352 109.799 38.352H97.511C97.2977 38.352 97.0843 38.4373 96.871 38.608C96.7003 38.7787 96.615 38.992 96.615 39.248V65.552C96.615 65.7653 96.7003 65.9787 96.871 66.192C97.0843 66.3627 97.2977 66.448 97.511 66.448H104.487C104.615 66.448 104.7 66.384 104.743 66.256C104.828 66.0853 104.807 65.936 104.679 65.808L101.543 62.672C100.988 62.1173 100.711 61.4347 100.711 60.624V58.192C100.711 57.552 100.882 56.9973 101.223 56.528C101.564 56.016 102.012 55.6533 102.567 55.44C103.122 55.2267 103.676 55.184 104.231 55.312C104.828 55.3973 105.319 55.6747 105.703 56.144L110.055 60.624C110.183 60.7093 110.311 60.7307 110.439 60.688C110.567 60.6453 110.631 60.5387 110.631 60.368ZM154.347 44.432L148.523 71.696C148.395 72.3787 148.054 72.9333 147.499 73.36C146.987 73.7867 146.39 74 145.707 74H143.915C143.232 74 142.614 73.7867 142.059 73.36C141.547 72.9333 141.206 72.3787 141.035 71.696L139.243 63.504C139.2 63.2907 139.094 63.184 138.923 63.184C138.752 63.184 138.646 63.2907 138.603 63.504L136.875 71.696C136.704 72.3787 136.363 72.9333 135.851 73.36C135.339 73.7867 134.72 74 133.995 74H132.203C131.52 74 130.902 73.7867 130.347 73.36C129.835 72.9333 129.494 72.3787 129.323 71.696L123.499 44.432C123.286 43.4933 123.456 42.6827 124.011 42C124.694 41.232 125.462 40.848 126.315 40.848H128.171C128.854 40.848 129.451 41.0613 129.963 41.488C130.518 41.9147 130.88 42.4907 131.051 43.216L132.779 51.408C132.822 51.5787 132.907 51.664 133.035 51.664C133.206 51.664 133.312 51.5787 133.355 51.408L135.211 43.216C135.339 42.4907 135.659 41.9147 136.171 41.488C136.726 41.0613 137.344 40.848 138.027 40.848H139.883C140.523 40.848 141.12 41.0613 141.675 41.488C142.23 41.9147 142.55 42.4907 142.635 43.216L144.491 51.472C144.534 51.6427 144.619 51.728 144.747 51.728C144.918 51.728 145.024 51.6427 145.067 51.472L146.859 43.216C147.03 42.4907 147.371 41.9147 147.883 41.488C148.438 41.0613 149.056 40.848 149.739 40.848H151.595C152.448 40.848 153.195 41.232 153.835 42C154.432 42.768 154.603 43.5787 154.347 44.432ZM169.287 34.832C169.287 36.1547 168.796 37.3067 167.815 38.288C166.876 39.2267 165.767 39.696 164.487 39.696C163.164 39.696 162.012 39.2267 161.031 38.288C160.092 37.3067 159.623 36.1547 159.623 34.832C159.623 33.552 160.092 32.4427 161.031 31.504C162.012 30.5227 163.164 30.032 164.487 30.032C165.767 30.032 166.876 30.5227 167.815 31.504C168.796 32.4427 169.287 33.552 169.287 34.832ZM168.263 71.056C168.263 71.8667 167.964 72.5707 167.367 73.168C166.812 73.7227 166.129 74 165.319 74H163.591C162.78 74 162.076 73.7227 161.479 73.168C160.924 72.5707 160.647 71.8667 160.647 71.056V44.496C160.647 43.6853 160.924 43.0027 161.479 42.448C162.076 41.8507 162.78 41.552 163.591 41.552H165.319C166.129 41.552 166.812 41.8507 167.367 42.448C167.964 43.0027 168.263 43.6853 168.263 44.496V71.056ZM195.619 45.136L185.443 65.68C185.315 65.8507 185.294 66.0213 185.379 66.192C185.507 66.3627 185.656 66.448 185.827 66.448H192.611C193.379 66.448 194.04 66.7253 194.595 67.28C195.192 67.8347 195.491 68.5387 195.491 69.392V71.056C195.491 71.8667 195.192 72.5707 194.595 73.168C194.04 73.7227 193.379 74 192.611 74H177.443C176.334 74 175.502 73.5307 174.947 72.592C174.392 71.6533 174.35 70.7147 174.819 69.776L185.059 49.168C185.144 49.04 185.144 48.8907 185.059 48.72C184.974 48.5493 184.824 48.464 184.611 48.464H178.083C177.272 48.464 176.568 48.1867 175.971 47.632C175.416 47.0773 175.139 46.3947 175.139 45.584V43.856C175.139 43.0027 175.416 42.2987 175.971 41.744C176.568 41.1467 177.272 40.848 178.083 40.848H192.995C194.062 40.848 194.894 41.3173 195.491 42.256C196.046 43.1947 196.088 44.1547 195.619 45.136ZM222.563 44.56L213.795 78.224C213.325 79.9733 212.365 81.4027 210.915 82.512C209.464 83.664 207.8 84.24 205.923 84.24H204.131C203.32 84.24 202.616 83.9413 202.019 83.344C201.464 82.7893 201.187 82.1067 201.187 81.296V79.504C201.187 78.6933 201.464 78.0107 202.019 77.456C202.616 76.9013 203.32 76.624 204.131 76.624H205.923C206.179 76.624 206.349 76.496 206.435 76.24L207.843 70.736C207.971 70.3947 207.971 70.032 207.843 69.648L201.315 44.56C200.973 43.5787 201.144 42.7467 201.827 42.064C202.381 41.2533 203.128 40.848 204.067 40.848H205.923C206.605 40.848 207.203 41.0613 207.715 41.488C208.227 41.872 208.568 42.4053 208.739 43.088L211.619 54.032C211.661 54.2027 211.768 54.288 211.939 54.288C212.109 54.288 212.216 54.2027 212.259 54.032L215.139 43.088C215.352 42.4053 215.693 41.872 216.163 41.488C216.675 41.0613 217.251 40.848 217.891 40.848H219.747C220.728 40.848 221.496 41.2533 222.051 42.064C222.691 42.7467 222.861 43.5787 222.563 44.56ZM250.978 66.832C250.978 68.8373 250.274 70.544 248.866 71.952C247.501 73.3173 245.837 74 243.874 74H234.978C233.015 74 231.33 73.3173 229.922 71.952C228.514 70.544 227.81 68.8373 227.81 66.832V48.016C227.81 46.6933 228.13 45.4987 228.77 44.432C229.453 43.3227 230.327 42.448 231.394 41.808C232.461 41.168 233.655 40.848 234.978 40.848H243.874C245.197 40.848 246.391 41.168 247.458 41.808C248.525 42.448 249.378 43.3227 250.018 44.432C250.658 45.4987 250.978 46.6933 250.978 48.016V66.832ZM243.426 65.616V49.36C243.426 49.104 243.319 48.8907 243.106 48.72C242.935 48.5493 242.743 48.464 242.53 48.464H236.322C236.109 48.464 235.895 48.5493 235.682 48.72C235.511 48.8907 235.426 49.104 235.426 49.36V65.616C235.426 65.8293 235.511 66.0213 235.682 66.192C235.895 66.3627 236.109 66.448 236.322 66.448H242.53C242.743 66.448 242.935 66.3627 243.106 66.192C243.319 66.0213 243.426 65.8293 243.426 65.616Z" fill="black"/>
</svg>
